<?xml version="1.0" encoding="utf-8" standalone="no"?>
<!DOCTYPE svg PUBLIC "-//W3C//DTD SVG 1.1//EN"
  "http://www.w3.org/Graphics/SVG/1.1/DTD/svg11.dtd">
<!-- Created with matplotlib (https://matplotlib.org/) -->
<svg height="576pt" version="1.1" viewBox="0 0 432 576" width="432pt" xmlns="http://www.w3.org/2000/svg" xmlns:xlink="http://www.w3.org/1999/xlink">
 <metadata>
  <rdf:RDF xmlns:cc="http://creativecommons.org/ns#" xmlns:dc="http://purl.org/dc/elements/1.1/" xmlns:rdf="http://www.w3.org/1999/02/22-rdf-syntax-ns#">
   <cc:Work>
    <dc:type rdf:resource="http://purl.org/dc/dcmitype/StillImage"/>
    <dc:date>2020-11-30T21:38:36.747869</dc:date>
    <dc:format>image/svg+xml</dc:format>
    <dc:creator>
     <cc:Agent>
      <dc:title>Matplotlib v3.3.2, https://matplotlib.org/</dc:title>
     </cc:Agent>
    </dc:creator>
   </cc:Work>
  </rdf:RDF>
 </metadata>
 <defs>
  <style type="text/css">*{stroke-linecap:butt;stroke-linejoin:round;}</style>
 </defs>
 <g id="figure_1">
  <g id="patch_1">
   <path d="M 0 576 
L 432 576 
L 432 0 
L 0 0 
z
" style="fill:#ffffff;"/>
  </g>
  <g id="axes_1">
   <g id="patch_2">
    <path d="M 39.382625 177.265958 
L 421.2 177.265958 
L 421.2 13.535438 
L 39.382625 13.535438 
z
" style="fill:#ffffff;"/>
   </g>
   <g id="matplotlib.axis_1">
    <g id="xtick_1">
     <g id="line2d_1">
      <path clip-path="url(#p7afbd4ca32)" d="M 56.73796 177.265958 
L 56.73796 13.535438 
" style="fill:none;stroke:#b0b0b0;stroke-linecap:square;"/>
     </g>
     <g id="line2d_2">
      <defs>
       <path d="M 0 0 
L 0 3.5 
" id="m850a58f2d6" style="stroke:#000000;stroke-width:0.8;"/>
      </defs>
      <g>
       <use style="stroke:#000000;stroke-width:0.8;" x="56.73796" xlink:href="#m850a58f2d6" y="177.265958"/>
      </g>
     </g>
    </g>
    <g id="xtick_2">
     <g id="line2d_3">
      <path clip-path="url(#p7afbd4ca32)" d="M 126.159301 177.265958 
L 126.159301 13.535438 
" style="fill:none;stroke:#b0b0b0;stroke-linecap:square;"/>
     </g>
     <g id="line2d_4">
      <g>
       <use style="stroke:#000000;stroke-width:0.8;" x="126.159301" xlink:href="#m850a58f2d6" y="177.265958"/>
      </g>
     </g>
    </g>
    <g id="xtick_3">
     <g id="line2d_5">
      <path clip-path="url(#p7afbd4ca32)" d="M 195.580642 177.265958 
L 195.580642 13.535438 
" style="fill:none;stroke:#b0b0b0;stroke-linecap:square;"/>
     </g>
     <g id="line2d_6">
      <g>
       <use style="stroke:#000000;stroke-width:0.8;" x="195.580642" xlink:href="#m850a58f2d6" y="177.265958"/>
      </g>
     </g>
    </g>
    <g id="xtick_4">
     <g id="line2d_7">
      <path clip-path="url(#p7afbd4ca32)" d="M 265.001983 177.265958 
L 265.001983 13.535438 
" style="fill:none;stroke:#b0b0b0;stroke-linecap:square;"/>
     </g>
     <g id="line2d_8">
      <g>
       <use style="stroke:#000000;stroke-width:0.8;" x="265.001983" xlink:href="#m850a58f2d6" y="177.265958"/>
      </g>
     </g>
    </g>
    <g id="xtick_5">
     <g id="line2d_9">
      <path clip-path="url(#p7afbd4ca32)" d="M 334.423324 177.265958 
L 334.423324 13.535438 
" style="fill:none;stroke:#b0b0b0;stroke-linecap:square;"/>
     </g>
     <g id="line2d_10">
      <g>
       <use style="stroke:#000000;stroke-width:0.8;" x="334.423324" xlink:href="#m850a58f2d6" y="177.265958"/>
      </g>
     </g>
    </g>
    <g id="xtick_6">
     <g id="line2d_11">
      <path clip-path="url(#p7afbd4ca32)" d="M 403.844665 177.265958 
L 403.844665 13.535438 
" style="fill:none;stroke:#b0b0b0;stroke-linecap:square;"/>
     </g>
     <g id="line2d_12">
      <g>
       <use style="stroke:#000000;stroke-width:0.8;" x="403.844665" xlink:href="#m850a58f2d6" y="177.265958"/>
      </g>
     </g>
    </g>
   </g>
   <g id="matplotlib.axis_2">
    <g id="ytick_1">
     <g id="line2d_13">
      <path clip-path="url(#p7afbd4ca32)" d="M 39.382625 177.265958 
L 421.2 177.265958 
" style="fill:none;stroke:#b0b0b0;stroke-linecap:square;"/>
     </g>
     <g id="line2d_14">
      <defs>
       <path d="M 0 0 
L -3.5 0 
" id="m62f3d0d436" style="stroke:#000000;stroke-width:0.8;"/>
      </defs>
      <g>
       <use style="stroke:#000000;stroke-width:0.8;" x="39.382625" xlink:href="#m62f3d0d436" y="177.265958"/>
      </g>
     </g>
     <g id="text_1">
      <!-- −2 -->
      <g transform="translate(17.640438 181.065177)scale(0.1 -0.1)">
       <defs>
        <path d="M 10.59375 35.5 
L 73.1875 35.5 
L 73.1875 27.203125 
L 10.59375 27.203125 
z
" id="DejaVuSans-8722"/>
        <path d="M 19.1875 8.296875 
L 53.609375 8.296875 
L 53.609375 0 
L 7.328125 0 
L 7.328125 8.296875 
Q 12.9375 14.109375 22.625 23.890625 
Q 32.328125 33.6875 34.8125 36.53125 
Q 39.546875 41.84375 41.421875 45.53125 
Q 43.3125 49.21875 43.3125 52.78125 
Q 43.3125 58.59375 39.234375 62.25 
Q 35.15625 65.921875 28.609375 65.921875 
Q 23.96875 65.921875 18.8125 64.3125 
Q 13.671875 62.703125 7.8125 59.421875 
L 7.8125 69.390625 
Q 13.765625 71.78125 18.9375 73 
Q 24.125 74.21875 28.421875 74.21875 
Q 39.75 74.21875 46.484375 68.546875 
Q 53.21875 62.890625 53.21875 53.421875 
Q 53.21875 48.921875 51.53125 44.890625 
Q 49.859375 40.875 45.40625 35.40625 
Q 44.1875 33.984375 37.640625 27.21875 
Q 31.109375 20.453125 19.1875 8.296875 
z
" id="DejaVuSans-50"/>
       </defs>
       <use xlink:href="#DejaVuSans-8722"/>
       <use x="83.789062" xlink:href="#DejaVuSans-50"/>
      </g>
     </g>
    </g>
    <g id="ytick_2">
     <g id="line2d_15">
      <path clip-path="url(#p7afbd4ca32)" d="M 39.382625 136.333328 
L 421.2 136.333328 
" style="fill:none;stroke:#b0b0b0;stroke-linecap:square;"/>
     </g>
     <g id="line2d_16">
      <g>
       <use style="stroke:#000000;stroke-width:0.8;" x="39.382625" xlink:href="#m62f3d0d436" y="136.333328"/>
      </g>
     </g>
     <g id="text_2">
      <!-- −1 -->
      <g transform="translate(17.640438 140.132547)scale(0.1 -0.1)">
       <defs>
        <path d="M 12.40625 8.296875 
L 28.515625 8.296875 
L 28.515625 63.921875 
L 10.984375 60.40625 
L 10.984375 69.390625 
L 28.421875 72.90625 
L 38.28125 72.90625 
L 38.28125 8.296875 
L 54.390625 8.296875 
L 54.390625 0 
L 12.40625 0 
z
" id="DejaVuSans-49"/>
       </defs>
       <use xlink:href="#DejaVuSans-8722"/>
       <use x="83.789062" xlink:href="#DejaVuSans-49"/>
      </g>
     </g>
    </g>
    <g id="ytick_3">
     <g id="line2d_17">
      <path clip-path="url(#p7afbd4ca32)" d="M 39.382625 95.400698 
L 421.2 95.400698 
" style="fill:none;stroke:#b0b0b0;stroke-linecap:square;"/>
     </g>
     <g id="line2d_18">
      <g>
       <use style="stroke:#000000;stroke-width:0.8;" x="39.382625" xlink:href="#m62f3d0d436" y="95.400698"/>
      </g>
     </g>
     <g id="text_3">
      <!-- 0 -->
      <g transform="translate(26.020125 99.199917)scale(0.1 -0.1)">
       <defs>
        <path d="M 31.78125 66.40625 
Q 24.171875 66.40625 20.328125 58.90625 
Q 16.5 51.421875 16.5 36.375 
Q 16.5 21.390625 20.328125 13.890625 
Q 24.171875 6.390625 31.78125 6.390625 
Q 39.453125 6.390625 43.28125 13.890625 
Q 47.125 21.390625 47.125 36.375 
Q 47.125 51.421875 43.28125 58.90625 
Q 39.453125 66.40625 31.78125 66.40625 
z
M 31.78125 74.21875 
Q 44.046875 74.21875 50.515625 64.515625 
Q 56.984375 54.828125 56.984375 36.375 
Q 56.984375 17.96875 50.515625 8.265625 
Q 44.046875 -1.421875 31.78125 -1.421875 
Q 19.53125 -1.421875 13.0625 8.265625 
Q 6.59375 17.96875 6.59375 36.375 
Q 6.59375 54.828125 13.0625 64.515625 
Q 19.53125 74.21875 31.78125 74.21875 
z
" id="DejaVuSans-48"/>
       </defs>
       <use xlink:href="#DejaVuSans-48"/>
      </g>
     </g>
    </g>
    <g id="ytick_4">
     <g id="line2d_19">
      <path clip-path="url(#p7afbd4ca32)" d="M 39.382625 54.468068 
L 421.2 54.468068 
" style="fill:none;stroke:#b0b0b0;stroke-linecap:square;"/>
     </g>
     <g id="line2d_20">
      <g>
       <use style="stroke:#000000;stroke-width:0.8;" x="39.382625" xlink:href="#m62f3d0d436" y="54.468068"/>
      </g>
     </g>
     <g id="text_4">
      <!-- 1 -->
      <g transform="translate(26.020125 58.267286)scale(0.1 -0.1)">
       <use xlink:href="#DejaVuSans-49"/>
      </g>
     </g>
    </g>
    <g id="ytick_5">
     <g id="line2d_21">
      <path clip-path="url(#p7afbd4ca32)" d="M 39.382625 13.535438 
L 421.2 13.535438 
" style="fill:none;stroke:#b0b0b0;stroke-linecap:square;"/>
     </g>
     <g id="line2d_22">
      <g>
       <use style="stroke:#000000;stroke-width:0.8;" x="39.382625" xlink:href="#m62f3d0d436" y="13.535438"/>
      </g>
     </g>
     <g id="text_5">
      <!-- 2 -->
      <g transform="translate(26.020125 17.334656)scale(0.1 -0.1)">
       <use xlink:href="#DejaVuSans-50"/>
      </g>
     </g>
    </g>
    <g id="text_6">
     <!-- $y_1$ -->
     <g transform="translate(11.540438 100.750698)rotate(-90)scale(0.1 -0.1)">
      <defs>
       <path d="M 24.8125 -5.078125 
Q 18.5625 -15.578125 14.625 -18.1875 
Q 10.6875 -20.796875 4.59375 -20.796875 
L -2.484375 -20.796875 
L -0.984375 -13.28125 
L 4.203125 -13.28125 
Q 7.953125 -13.28125 10.59375 -11.234375 
Q 13.234375 -9.1875 16.5 -3.21875 
L 19.28125 2 
L 7.171875 54.6875 
L 16.703125 54.6875 
L 25.78125 12.796875 
L 50.875 54.6875 
L 60.296875 54.6875 
z
" id="DejaVuSans-Oblique-121"/>
      </defs>
      <use transform="translate(0 0.3125)" xlink:href="#DejaVuSans-Oblique-121"/>
      <use transform="translate(59.179688 -16.09375)scale(0.7)" xlink:href="#DejaVuSans-49"/>
     </g>
    </g>
   </g>
   <g id="line2d_23">
    <path clip-path="url(#p7afbd4ca32)" d="M 56.73796 54.468068 
L 58.482215 56.49147 
L 60.22647 62.361635 
L 61.970725 71.498207 
L 63.714979 82.997899 
L 67.203489 108.417747 
L 68.947744 119.824768 
L 70.691999 128.817103 
L 72.436253 134.505725 
L 74.180508 136.328227 
L 75.924763 134.104429 
L 77.669018 128.054185 
L 79.413273 118.775653 
L 81.157527 107.186156 
L 84.646037 81.772644 
L 86.390292 70.461136 
L 88.134547 61.615278 
L 89.878801 56.109617 
L 91.623056 54.488469 
L 93.367311 56.91211 
L 95.111566 63.140925 
L 96.855821 72.559104 
L 98.600075 84.235517 
L 102.088585 109.636361 
L 103.83284 120.849536 
L 105.577095 129.546712 
L 107.321349 134.868041 
L 109.065604 136.28743 
L 110.809859 133.664552 
L 112.554114 127.258717 
L 114.298369 117.703238 
L 116.042623 105.942818 
L 119.531133 80.560973 
L 121.275388 69.448925 
L 123.019643 60.9026 
L 124.763897 55.766929 
L 126.508152 54.549652 
L 128.252407 57.371115 
L 129.996662 63.952373 
L 131.740916 73.64277 
L 133.485171 85.484266 
L 136.973681 110.840785 
L 138.717936 121.848937 
L 140.46219 130.242283 
L 142.206445 135.191014 
L 143.9507 136.205876 
L 145.694955 133.186532 
L 147.43921 126.431492 
L 149.183464 116.608591 
L 150.927719 104.688971 
L 154.416229 79.364096 
L 156.160484 68.462584 
L 157.904738 60.22431 
L 159.648993 55.46375 
L 161.393248 54.651557 
L 163.137503 57.868029 
L 164.881758 64.795169 
L 166.626012 74.748125 
L 168.370267 86.742899 
L 171.858777 112.029818 
L 173.603032 122.821973 
L 175.347286 130.903123 
L 177.091541 135.474324 
L 178.835796 136.083646 
L 180.580051 132.670847 
L 182.324306 125.573334 
L 184.06856 115.492803 
L 185.812815 103.425865 
L 189.301325 78.183203 
L 191.04558 67.503095 
L 192.789834 59.581084 
L 194.534089 55.20038 
L 196.278344 54.794081 
L 198.022599 58.402357 
L 199.766854 65.668473 
L 201.511108 75.874067 
L 204.999618 100.876922 
L 206.743873 113.202275 
L 208.488128 123.767675 
L 210.232382 131.528573 
L 211.976637 135.717688 
L 213.720892 135.920863 
L 215.465147 132.118011 
L 217.209402 124.6851 
L 218.953656 114.356987 
L 224.186421 77.019474 
L 225.930676 66.571416 
L 227.67493 58.973565 
L 229.419185 54.977083 
L 231.16344 54.977083 
L 232.907695 58.973565 
L 234.651949 66.571416 
L 236.396204 77.019474 
L 241.628969 114.356987 
L 243.373223 124.6851 
L 245.117478 132.118011 
L 246.861733 135.920863 
L 248.605988 135.717688 
L 250.350243 131.528573 
L 252.094497 123.767675 
L 253.838752 113.202275 
L 259.071517 75.874067 
L 260.815771 65.668473 
L 262.560026 58.402357 
L 264.304281 54.794081 
L 266.048536 55.20038 
L 267.792791 59.581084 
L 269.537045 67.503095 
L 271.2813 78.183203 
L 276.514065 115.492803 
L 278.258319 125.573334 
L 280.002574 132.670847 
L 281.746829 136.083646 
L 283.491084 135.474324 
L 285.235339 130.903123 
L 286.979593 122.821973 
L 288.723848 112.029818 
L 293.956613 74.748125 
L 295.700867 64.795169 
L 297.445122 57.868029 
L 299.189377 54.651557 
L 300.933632 55.46375 
L 302.677887 60.22431 
L 304.422141 68.462584 
L 306.166396 79.364096 
L 311.399161 116.608591 
L 313.143415 126.431492 
L 314.88767 133.186532 
L 316.631925 136.205876 
L 318.37618 135.191014 
L 320.120435 130.242283 
L 321.864689 121.848937 
L 323.608944 110.840785 
L 328.841709 73.64277 
L 330.585963 63.952373 
L 332.330218 57.371115 
L 334.074473 54.549652 
L 335.818728 55.766929 
L 337.562982 60.9026 
L 339.307237 69.448925 
L 341.051492 80.560973 
L 346.284256 117.703238 
L 348.028511 127.258717 
L 349.772766 133.664552 
L 351.517021 136.28743 
L 353.261276 134.868041 
L 355.00553 129.546712 
L 356.749785 120.849536 
L 358.49404 109.636361 
L 363.726804 72.559104 
L 365.471059 63.140925 
L 367.215314 56.91211 
L 368.959569 54.488469 
L 370.703824 56.109617 
L 372.448078 61.615278 
L 374.192333 70.461136 
L 375.936588 81.772644 
L 379.425098 107.186156 
L 381.169352 118.775653 
L 382.913607 128.054185 
L 384.657862 134.104429 
L 386.402117 136.328227 
L 388.146372 134.505725 
L 389.890626 128.817103 
L 391.634881 119.824768 
L 393.379136 108.417747 
L 396.867646 82.997899 
L 398.6119 71.498207 
L 400.356155 62.361635 
L 402.10041 56.49147 
L 403.844665 54.468068 
L 403.844665 54.468068 
" style="fill:none;stroke:#0000ff;stroke-linecap:square;stroke-width:1.5;"/>
   </g>
   <g id="patch_3">
    <path d="M 39.382625 177.265958 
L 39.382625 13.535438 
" style="fill:none;stroke:#000000;stroke-linecap:square;stroke-linejoin:miter;stroke-width:0.8;"/>
   </g>
   <g id="patch_4">
    <path d="M 421.2 177.265958 
L 421.2 13.535438 
" style="fill:none;stroke:#000000;stroke-linecap:square;stroke-linejoin:miter;stroke-width:0.8;"/>
   </g>
   <g id="patch_5">
    <path d="M 39.382625 177.265958 
L 421.2 177.265958 
" style="fill:none;stroke:#000000;stroke-linecap:square;stroke-linejoin:miter;stroke-width:0.8;"/>
   </g>
   <g id="patch_6">
    <path d="M 39.382625 13.535438 
L 421.2 13.535438 
" style="fill:none;stroke:#000000;stroke-linecap:square;stroke-linejoin:miter;stroke-width:0.8;"/>
   </g>
   <g id="legend_1">
    <g id="patch_7">
     <path d="M 341.2 36.213563 
L 414.2 36.213563 
Q 416.2 36.213563 416.2 34.213563 
L 416.2 20.535438 
Q 416.2 18.535438 414.2 18.535438 
L 341.2 18.535438 
Q 339.2 18.535438 339.2 20.535438 
L 339.2 34.213563 
Q 339.2 36.213563 341.2 36.213563 
z
" style="fill:#ffffff;opacity:0.8;stroke:#cccccc;stroke-linejoin:miter;"/>
    </g>
    <g id="line2d_24">
     <path d="M 343.2 26.633875 
L 363.2 26.633875 
" style="fill:none;stroke:#0000ff;stroke-linecap:square;stroke-width:1.5;"/>
    </g>
    <g id="line2d_25"/>
    <g id="text_7">
     <!-- $\cos(8\pi t)$ -->
     <g transform="translate(371.2 30.133875)scale(0.1 -0.1)">
      <defs>
       <path d="M 48.78125 52.59375 
L 48.78125 44.1875 
Q 44.96875 46.296875 41.140625 47.34375 
Q 37.3125 48.390625 33.40625 48.390625 
Q 24.65625 48.390625 19.8125 42.84375 
Q 14.984375 37.3125 14.984375 27.296875 
Q 14.984375 17.28125 19.8125 11.734375 
Q 24.65625 6.203125 33.40625 6.203125 
Q 37.3125 6.203125 41.140625 7.25 
Q 44.96875 8.296875 48.78125 10.40625 
L 48.78125 2.09375 
Q 45.015625 0.34375 40.984375 -0.53125 
Q 36.96875 -1.421875 32.421875 -1.421875 
Q 20.0625 -1.421875 12.78125 6.34375 
Q 5.515625 14.109375 5.515625 27.296875 
Q 5.515625 40.671875 12.859375 48.328125 
Q 20.21875 56 33.015625 56 
Q 37.15625 56 41.109375 55.140625 
Q 45.0625 54.296875 48.78125 52.59375 
z
" id="DejaVuSans-99"/>
       <path d="M 30.609375 48.390625 
Q 23.390625 48.390625 19.1875 42.75 
Q 14.984375 37.109375 14.984375 27.296875 
Q 14.984375 17.484375 19.15625 11.84375 
Q 23.34375 6.203125 30.609375 6.203125 
Q 37.796875 6.203125 41.984375 11.859375 
Q 46.1875 17.53125 46.1875 27.296875 
Q 46.1875 37.015625 41.984375 42.703125 
Q 37.796875 48.390625 30.609375 48.390625 
z
M 30.609375 56 
Q 42.328125 56 49.015625 48.375 
Q 55.71875 40.765625 55.71875 27.296875 
Q 55.71875 13.875 49.015625 6.21875 
Q 42.328125 -1.421875 30.609375 -1.421875 
Q 18.84375 -1.421875 12.171875 6.21875 
Q 5.515625 13.875 5.515625 27.296875 
Q 5.515625 40.765625 12.171875 48.375 
Q 18.84375 56 30.609375 56 
z
" id="DejaVuSans-111"/>
       <path d="M 44.28125 53.078125 
L 44.28125 44.578125 
Q 40.484375 46.53125 36.375 47.5 
Q 32.28125 48.484375 27.875 48.484375 
Q 21.1875 48.484375 17.84375 46.4375 
Q 14.5 44.390625 14.5 40.28125 
Q 14.5 37.15625 16.890625 35.375 
Q 19.28125 33.59375 26.515625 31.984375 
L 29.59375 31.296875 
Q 39.15625 29.25 43.1875 25.515625 
Q 47.21875 21.78125 47.21875 15.09375 
Q 47.21875 7.46875 41.1875 3.015625 
Q 35.15625 -1.421875 24.609375 -1.421875 
Q 20.21875 -1.421875 15.453125 -0.5625 
Q 10.6875 0.296875 5.421875 2 
L 5.421875 11.28125 
Q 10.40625 8.6875 15.234375 7.390625 
Q 20.0625 6.109375 24.8125 6.109375 
Q 31.15625 6.109375 34.5625 8.28125 
Q 37.984375 10.453125 37.984375 14.40625 
Q 37.984375 18.0625 35.515625 20.015625 
Q 33.0625 21.96875 24.703125 23.78125 
L 21.578125 24.515625 
Q 13.234375 26.265625 9.515625 29.90625 
Q 5.8125 33.546875 5.8125 39.890625 
Q 5.8125 47.609375 11.28125 51.796875 
Q 16.75 56 26.8125 56 
Q 31.78125 56 36.171875 55.265625 
Q 40.578125 54.546875 44.28125 53.078125 
z
" id="DejaVuSans-115"/>
       <path d="M 31 75.875 
Q 24.46875 64.65625 21.28125 53.65625 
Q 18.109375 42.671875 18.109375 31.390625 
Q 18.109375 20.125 21.3125 9.0625 
Q 24.515625 -2 31 -13.1875 
L 23.1875 -13.1875 
Q 15.875 -1.703125 12.234375 9.375 
Q 8.59375 20.453125 8.59375 31.390625 
Q 8.59375 42.28125 12.203125 53.3125 
Q 15.828125 64.359375 23.1875 75.875 
z
" id="DejaVuSans-40"/>
       <path d="M 31.78125 34.625 
Q 24.75 34.625 20.71875 30.859375 
Q 16.703125 27.09375 16.703125 20.515625 
Q 16.703125 13.921875 20.71875 10.15625 
Q 24.75 6.390625 31.78125 6.390625 
Q 38.8125 6.390625 42.859375 10.171875 
Q 46.921875 13.96875 46.921875 20.515625 
Q 46.921875 27.09375 42.890625 30.859375 
Q 38.875 34.625 31.78125 34.625 
z
M 21.921875 38.8125 
Q 15.578125 40.375 12.03125 44.71875 
Q 8.5 49.078125 8.5 55.328125 
Q 8.5 64.0625 14.71875 69.140625 
Q 20.953125 74.21875 31.78125 74.21875 
Q 42.671875 74.21875 48.875 69.140625 
Q 55.078125 64.0625 55.078125 55.328125 
Q 55.078125 49.078125 51.53125 44.71875 
Q 48 40.375 41.703125 38.8125 
Q 48.828125 37.15625 52.796875 32.3125 
Q 56.78125 27.484375 56.78125 20.515625 
Q 56.78125 9.90625 50.3125 4.234375 
Q 43.84375 -1.421875 31.78125 -1.421875 
Q 19.734375 -1.421875 13.25 4.234375 
Q 6.78125 9.90625 6.78125 20.515625 
Q 6.78125 27.484375 10.78125 32.3125 
Q 14.796875 37.15625 21.921875 38.8125 
z
M 18.3125 54.390625 
Q 18.3125 48.734375 21.84375 45.5625 
Q 25.390625 42.390625 31.78125 42.390625 
Q 38.140625 42.390625 41.71875 45.5625 
Q 45.3125 48.734375 45.3125 54.390625 
Q 45.3125 60.0625 41.71875 63.234375 
Q 38.140625 66.40625 31.78125 66.40625 
Q 25.390625 66.40625 21.84375 63.234375 
Q 18.3125 60.0625 18.3125 54.390625 
z
" id="DejaVuSans-56"/>
       <path d="M 9.125 54.6875 
L 61.53125 54.6875 
L 59.765625 45.703125 
L 52.875 45.703125 
L 46.34375 12.109375 
Q 45.65625 8.59375 46.578125 7.03125 
Q 47.46875 5.515625 50.140625 5.515625 
Q 50.875 5.515625 51.953125 5.671875 
Q 53.078125 5.765625 53.421875 5.8125 
L 52.15625 -0.6875 
Q 50.34375 -1.3125 48.484375 -1.609375 
Q 46.578125 -1.90625 44.78125 -1.90625 
Q 38.921875 -1.90625 37.3125 1.265625 
Q 35.6875 4.5 37.359375 13.09375 
L 43.703125 45.703125 
L 23.53125 45.703125 
L 14.65625 0 
L 5.46875 0 
L 14.359375 45.703125 
L 7.375 45.703125 
z
" id="DejaVuSans-Oblique-960"/>
       <path d="M 42.28125 54.6875 
L 40.921875 47.703125 
L 23 47.703125 
L 17.1875 18.015625 
Q 16.890625 16.359375 16.75 15.234375 
Q 16.609375 14.109375 16.609375 13.484375 
Q 16.609375 10.359375 18.484375 8.9375 
Q 20.359375 7.515625 24.515625 7.515625 
L 33.59375 7.515625 
L 32.078125 0 
L 23.484375 0 
Q 15.484375 0 11.546875 3.125 
Q 7.625 6.25 7.625 12.59375 
Q 7.625 13.71875 7.765625 15.0625 
Q 7.90625 16.40625 8.203125 18.015625 
L 14.015625 47.703125 
L 6.390625 47.703125 
L 7.8125 54.6875 
L 15.28125 54.6875 
L 18.3125 70.21875 
L 27.296875 70.21875 
L 24.3125 54.6875 
z
" id="DejaVuSans-Oblique-116"/>
       <path d="M 8.015625 75.875 
L 15.828125 75.875 
Q 23.140625 64.359375 26.78125 53.3125 
Q 30.421875 42.28125 30.421875 31.390625 
Q 30.421875 20.453125 26.78125 9.375 
Q 23.140625 -1.703125 15.828125 -13.1875 
L 8.015625 -13.1875 
Q 14.5 -2 17.703125 9.0625 
Q 20.90625 20.125 20.90625 31.390625 
Q 20.90625 42.671875 17.703125 53.65625 
Q 14.5 64.65625 8.015625 75.875 
z
" id="DejaVuSans-41"/>
      </defs>
      <use transform="translate(0 0.125)" xlink:href="#DejaVuSans-99"/>
      <use transform="translate(54.980469 0.125)" xlink:href="#DejaVuSans-111"/>
      <use transform="translate(116.162109 0.125)" xlink:href="#DejaVuSans-115"/>
      <use transform="translate(168.261719 0.125)" xlink:href="#DejaVuSans-40"/>
      <use transform="translate(207.275391 0.125)" xlink:href="#DejaVuSans-56"/>
      <use transform="translate(270.898438 0.125)" xlink:href="#DejaVuSans-Oblique-960"/>
      <use transform="translate(331.103516 0.125)" xlink:href="#DejaVuSans-Oblique-116"/>
      <use transform="translate(370.3125 0.125)" xlink:href="#DejaVuSans-41"/>
     </g>
    </g>
   </g>
  </g>
  <g id="axes_2">
   <g id="patch_8">
    <path d="M 39.382625 358.764729 
L 421.2 358.764729 
L 421.2 195.034208 
L 39.382625 195.034208 
z
" style="fill:#ffffff;"/>
   </g>
   <g id="matplotlib.axis_3">
    <g id="xtick_7">
     <g id="line2d_26">
      <path clip-path="url(#p418758c7eb)" d="M 56.73796 358.764729 
L 56.73796 195.034208 
" style="fill:none;stroke:#b0b0b0;stroke-linecap:square;"/>
     </g>
     <g id="line2d_27">
      <g>
       <use style="stroke:#000000;stroke-width:0.8;" x="56.73796" xlink:href="#m850a58f2d6" y="358.764729"/>
      </g>
     </g>
    </g>
    <g id="xtick_8">
     <g id="line2d_28">
      <path clip-path="url(#p418758c7eb)" d="M 126.159301 358.764729 
L 126.159301 195.034208 
" style="fill:none;stroke:#b0b0b0;stroke-linecap:square;"/>
     </g>
     <g id="line2d_29">
      <g>
       <use style="stroke:#000000;stroke-width:0.8;" x="126.159301" xlink:href="#m850a58f2d6" y="358.764729"/>
      </g>
     </g>
    </g>
    <g id="xtick_9">
     <g id="line2d_30">
      <path clip-path="url(#p418758c7eb)" d="M 195.580642 358.764729 
L 195.580642 195.034208 
" style="fill:none;stroke:#b0b0b0;stroke-linecap:square;"/>
     </g>
     <g id="line2d_31">
      <g>
       <use style="stroke:#000000;stroke-width:0.8;" x="195.580642" xlink:href="#m850a58f2d6" y="358.764729"/>
      </g>
     </g>
    </g>
    <g id="xtick_10">
     <g id="line2d_32">
      <path clip-path="url(#p418758c7eb)" d="M 265.001983 358.764729 
L 265.001983 195.034208 
" style="fill:none;stroke:#b0b0b0;stroke-linecap:square;"/>
     </g>
     <g id="line2d_33">
      <g>
       <use style="stroke:#000000;stroke-width:0.8;" x="265.001983" xlink:href="#m850a58f2d6" y="358.764729"/>
      </g>
     </g>
    </g>
    <g id="xtick_11">
     <g id="line2d_34">
      <path clip-path="url(#p418758c7eb)" d="M 334.423324 358.764729 
L 334.423324 195.034208 
" style="fill:none;stroke:#b0b0b0;stroke-linecap:square;"/>
     </g>
     <g id="line2d_35">
      <g>
       <use style="stroke:#000000;stroke-width:0.8;" x="334.423324" xlink:href="#m850a58f2d6" y="358.764729"/>
      </g>
     </g>
    </g>
    <g id="xtick_12">
     <g id="line2d_36">
      <path clip-path="url(#p418758c7eb)" d="M 403.844665 358.764729 
L 403.844665 195.034208 
" style="fill:none;stroke:#b0b0b0;stroke-linecap:square;"/>
     </g>
     <g id="line2d_37">
      <g>
       <use style="stroke:#000000;stroke-width:0.8;" x="403.844665" xlink:href="#m850a58f2d6" y="358.764729"/>
      </g>
     </g>
    </g>
   </g>
   <g id="matplotlib.axis_4">
    <g id="ytick_6">
     <g id="line2d_38">
      <path clip-path="url(#p418758c7eb)" d="M 39.382625 358.764729 
L 421.2 358.764729 
" style="fill:none;stroke:#b0b0b0;stroke-linecap:square;"/>
     </g>
     <g id="line2d_39">
      <g>
       <use style="stroke:#000000;stroke-width:0.8;" x="39.382625" xlink:href="#m62f3d0d436" y="358.764729"/>
      </g>
     </g>
     <g id="text_8">
      <!-- −2 -->
      <g transform="translate(17.640438 362.563948)scale(0.1 -0.1)">
       <use xlink:href="#DejaVuSans-8722"/>
       <use x="83.789062" xlink:href="#DejaVuSans-50"/>
      </g>
     </g>
    </g>
    <g id="ytick_7">
     <g id="line2d_40">
      <path clip-path="url(#p418758c7eb)" d="M 39.382625 317.832099 
L 421.2 317.832099 
" style="fill:none;stroke:#b0b0b0;stroke-linecap:square;"/>
     </g>
     <g id="line2d_41">
      <g>
       <use style="stroke:#000000;stroke-width:0.8;" x="39.382625" xlink:href="#m62f3d0d436" y="317.832099"/>
      </g>
     </g>
     <g id="text_9">
      <!-- −1 -->
      <g transform="translate(17.640438 321.631318)scale(0.1 -0.1)">
       <use xlink:href="#DejaVuSans-8722"/>
       <use x="83.789062" xlink:href="#DejaVuSans-49"/>
      </g>
     </g>
    </g>
    <g id="ytick_8">
     <g id="line2d_42">
      <path clip-path="url(#p418758c7eb)" d="M 39.382625 276.899469 
L 421.2 276.899469 
" style="fill:none;stroke:#b0b0b0;stroke-linecap:square;"/>
     </g>
     <g id="line2d_43">
      <g>
       <use style="stroke:#000000;stroke-width:0.8;" x="39.382625" xlink:href="#m62f3d0d436" y="276.899469"/>
      </g>
     </g>
     <g id="text_10">
      <!-- 0 -->
      <g transform="translate(26.020125 280.698688)scale(0.1 -0.1)">
       <use xlink:href="#DejaVuSans-48"/>
      </g>
     </g>
    </g>
    <g id="ytick_9">
     <g id="line2d_44">
      <path clip-path="url(#p418758c7eb)" d="M 39.382625 235.966839 
L 421.2 235.966839 
" style="fill:none;stroke:#b0b0b0;stroke-linecap:square;"/>
     </g>
     <g id="line2d_45">
      <g>
       <use style="stroke:#000000;stroke-width:0.8;" x="39.382625" xlink:href="#m62f3d0d436" y="235.966839"/>
      </g>
     </g>
     <g id="text_11">
      <!-- 1 -->
      <g transform="translate(26.020125 239.766057)scale(0.1 -0.1)">
       <use xlink:href="#DejaVuSans-49"/>
      </g>
     </g>
    </g>
    <g id="ytick_10">
     <g id="line2d_46">
      <path clip-path="url(#p418758c7eb)" d="M 39.382625 195.034208 
L 421.2 195.034208 
" style="fill:none;stroke:#b0b0b0;stroke-linecap:square;"/>
     </g>
     <g id="line2d_47">
      <g>
       <use style="stroke:#000000;stroke-width:0.8;" x="39.382625" xlink:href="#m62f3d0d436" y="195.034208"/>
      </g>
     </g>
     <g id="text_12">
      <!-- 2 -->
      <g transform="translate(26.020125 198.833427)scale(0.1 -0.1)">
       <use xlink:href="#DejaVuSans-50"/>
      </g>
     </g>
    </g>
    <g id="text_13">
     <!-- $y_2$ -->
     <g transform="translate(11.540438 282.249469)rotate(-90)scale(0.1 -0.1)">
      <use transform="translate(0 0.3125)" xlink:href="#DejaVuSans-Oblique-121"/>
      <use transform="translate(59.179688 -16.09375)scale(0.7)" xlink:href="#DejaVuSans-50"/>
     </g>
    </g>
   </g>
   <g id="line2d_48">
    <path clip-path="url(#p418758c7eb)" d="M 56.73796 235.966839 
L 58.482215 239.113634 
L 60.22647 248.070186 
L 61.970725 261.459381 
L 65.459234 292.936071 
L 67.203489 306.183871 
L 68.947744 314.929052 
L 70.691999 317.826998 
L 72.436253 314.432138 
L 74.180508 305.266446 
L 75.924763 291.739193 
L 79.413273 260.270348 
L 81.157527 247.167244 
L 82.901782 238.635615 
L 84.646037 235.98724 
L 86.390292 239.629319 
L 88.134547 249.001866 
L 89.878801 262.663806 
L 93.367311 294.116963 
L 95.111566 307.072105 
L 96.855821 315.388057 
L 98.600075 317.786201 
L 100.34433 313.89781 
L 102.088585 304.320744 
L 103.83284 290.527523 
L 107.321349 259.097891 
L 109.065604 246.29394 
L 110.809859 238.195738 
L 112.554114 236.048423 
L 114.298369 240.182156 
L 116.042623 249.961355 
L 117.786878 263.88242 
L 121.275388 295.280693 
L 123.019643 307.930262 
L 124.763897 315.808696 
L 126.508152 317.704647 
L 128.252407 313.326602 
L 129.996662 303.347708 
L 131.740916 289.302268 
L 135.229426 257.943179 
L 136.973681 245.451144 
L 138.717936 237.794442 
L 140.46219 236.150328 
L 142.206445 240.771594 
L 143.9507 250.947696 
L 145.694955 265.11401 
L 149.183464 296.426099 
L 150.927719 308.757487 
L 152.671974 316.19055 
L 154.416229 317.582417 
L 156.160484 312.719082 
L 157.904738 302.348307 
L 159.648993 288.064649 
L 163.137503 256.807364 
L 164.881758 244.639696 
L 166.626012 237.432126 
L 168.370267 236.292852 
L 170.114522 241.397044 
L 171.858777 251.959907 
L 173.603032 266.357349 
L 177.091541 297.552041 
L 178.835796 309.552956 
L 180.580051 316.533237 
L 182.324306 317.419634 
L 184.06856 312.075857 
L 185.812815 301.323539 
L 187.55707 286.815901 
L 191.04558 255.691576 
L 192.789834 243.860406 
L 194.534089 237.109152 
L 196.278344 236.475854 
L 198.022599 242.057884 
L 199.766854 252.996977 
L 201.511108 267.611196 
L 203.255363 283.653531 
L 204.999618 298.657396 
L 206.743873 310.315874 
L 208.488128 316.836417 
L 210.232382 317.216459 
L 211.976637 311.397567 
L 213.720892 300.274424 
L 215.465147 285.557268 
L 217.209402 269.508933 
L 218.953656 254.596929 
L 220.697911 243.114049 
L 222.442166 236.825842 
L 224.186421 236.699151 
L 225.930676 242.753455 
L 227.67493 254.057875 
L 229.419185 268.874301 
L 231.16344 284.924636 
L 232.907695 299.741063 
L 234.651949 311.045483 
L 236.396204 317.099786 
L 238.140459 316.973095 
L 239.884714 310.684888 
L 241.628969 299.202009 
L 243.373223 284.290005 
L 245.117478 268.24167 
L 246.861733 253.524513 
L 248.605988 242.401371 
L 250.350243 236.582479 
L 252.094497 236.962521 
L 253.838752 243.483063 
L 255.583007 255.141541 
L 257.327262 270.145407 
L 259.071517 286.187742 
L 260.815771 300.80196 
L 262.560026 311.741054 
L 264.304281 317.323083 
L 266.048536 316.689785 
L 267.792791 309.938532 
L 269.537045 298.107362 
L 274.76981 252.475399 
L 276.514065 241.723081 
L 278.258319 236.379304 
L 280.002574 237.2657 
L 281.746829 244.245982 
L 283.491084 256.246896 
L 288.723848 301.839031 
L 290.468103 312.401894 
L 292.212358 317.506085 
L 293.956613 316.366812 
L 295.700867 309.159241 
L 297.445122 296.991574 
L 302.677887 251.45063 
L 304.422141 241.079855 
L 306.166396 236.216521 
L 307.910651 237.608388 
L 309.654906 245.04145 
L 311.399161 257.372838 
L 316.631925 302.851241 
L 318.37618 313.027344 
L 320.120435 317.64861 
L 321.864689 316.004496 
L 323.608944 308.347794 
L 325.353199 295.855758 
L 330.585963 250.45123 
L 332.330218 240.472336 
L 334.074473 236.094291 
L 335.818728 237.990241 
L 337.562982 245.868675 
L 339.307237 258.518245 
L 342.795747 289.916517 
L 344.540002 303.837583 
L 346.284256 313.616781 
L 348.028511 317.750514 
L 349.772766 315.6032 
L 351.517021 307.504998 
L 353.261276 294.701046 
L 356.749785 263.271415 
L 358.49404 249.478194 
L 360.238295 239.901127 
L 361.98255 236.012737 
L 363.726804 238.41088 
L 365.471059 246.726832 
L 367.215314 259.681974 
L 370.703824 291.135132 
L 372.448078 304.797071 
L 374.192333 314.169618 
L 375.936588 317.811698 
L 377.680843 315.163323 
L 379.425098 306.631693 
L 381.169352 293.528589 
L 384.657862 262.059744 
L 386.402117 248.532492 
L 388.146372 239.3668 
L 389.890626 235.971939 
L 391.634881 238.869886 
L 393.379136 247.615066 
L 395.123391 260.862866 
L 398.6119 292.339556 
L 400.356155 305.728751 
L 402.10041 314.685303 
L 403.844665 317.832099 
L 403.844665 317.832099 
" style="fill:none;stroke:#0000ff;stroke-linecap:square;stroke-width:1.5;"/>
   </g>
   <g id="patch_9">
    <path d="M 39.382625 358.764729 
L 39.382625 195.034208 
" style="fill:none;stroke:#000000;stroke-linecap:square;stroke-linejoin:miter;stroke-width:0.8;"/>
   </g>
   <g id="patch_10">
    <path d="M 421.2 358.764729 
L 421.2 195.034208 
" style="fill:none;stroke:#000000;stroke-linecap:square;stroke-linejoin:miter;stroke-width:0.8;"/>
   </g>
   <g id="patch_11">
    <path d="M 39.382625 358.764729 
L 421.2 358.764729 
" style="fill:none;stroke:#000000;stroke-linecap:square;stroke-linejoin:miter;stroke-width:0.8;"/>
   </g>
   <g id="patch_12">
    <path d="M 39.382625 195.034208 
L 421.2 195.034208 
" style="fill:none;stroke:#000000;stroke-linecap:square;stroke-linejoin:miter;stroke-width:0.8;"/>
   </g>
   <g id="legend_2">
    <g id="patch_13">
     <path d="M 334.9 217.712333 
L 414.2 217.712333 
Q 416.2 217.712333 416.2 215.712333 
L 416.2 202.034208 
Q 416.2 200.034208 414.2 200.034208 
L 334.9 200.034208 
Q 332.9 200.034208 332.9 202.034208 
L 332.9 215.712333 
Q 332.9 217.712333 334.9 217.712333 
z
" style="fill:#ffffff;opacity:0.8;stroke:#cccccc;stroke-linejoin:miter;"/>
    </g>
    <g id="line2d_49">
     <path d="M 336.9 208.132646 
L 356.9 208.132646 
" style="fill:none;stroke:#0000ff;stroke-linecap:square;stroke-width:1.5;"/>
    </g>
    <g id="line2d_50"/>
    <g id="text_14">
     <!-- $\cos(10\pi t)$ -->
     <g transform="translate(364.9 211.632646)scale(0.1 -0.1)">
      <use transform="translate(0 0.125)" xlink:href="#DejaVuSans-99"/>
      <use transform="translate(54.980469 0.125)" xlink:href="#DejaVuSans-111"/>
      <use transform="translate(116.162109 0.125)" xlink:href="#DejaVuSans-115"/>
      <use transform="translate(168.261719 0.125)" xlink:href="#DejaVuSans-40"/>
      <use transform="translate(207.275391 0.125)" xlink:href="#DejaVuSans-49"/>
      <use transform="translate(270.898438 0.125)" xlink:href="#DejaVuSans-48"/>
      <use transform="translate(334.521484 0.125)" xlink:href="#DejaVuSans-Oblique-960"/>
      <use transform="translate(394.726562 0.125)" xlink:href="#DejaVuSans-Oblique-116"/>
      <use transform="translate(433.935547 0.125)" xlink:href="#DejaVuSans-41"/>
     </g>
    </g>
   </g>
  </g>
  <g id="axes_3">
   <g id="patch_14">
    <path d="M 39.382625 540.2635 
L 421.2 540.2635 
L 421.2 376.532979 
L 39.382625 376.532979 
z
" style="fill:#ffffff;"/>
   </g>
   <g id="matplotlib.axis_5">
    <g id="xtick_13">
     <g id="line2d_51">
      <path clip-path="url(#pd306c0cc32)" d="M 56.73796 540.2635 
L 56.73796 376.532979 
" style="fill:none;stroke:#b0b0b0;stroke-linecap:square;"/>
     </g>
     <g id="line2d_52">
      <g>
       <use style="stroke:#000000;stroke-width:0.8;" x="56.73796" xlink:href="#m850a58f2d6" y="540.2635"/>
      </g>
     </g>
     <g id="text_15">
      <!-- 0.0 -->
      <g transform="translate(48.786398 554.861938)scale(0.1 -0.1)">
       <defs>
        <path d="M 10.6875 12.40625 
L 21 12.40625 
L 21 0 
L 10.6875 0 
z
" id="DejaVuSans-46"/>
       </defs>
       <use xlink:href="#DejaVuSans-48"/>
       <use x="63.623047" xlink:href="#DejaVuSans-46"/>
       <use x="95.410156" xlink:href="#DejaVuSans-48"/>
      </g>
     </g>
    </g>
    <g id="xtick_14">
     <g id="line2d_53">
      <path clip-path="url(#pd306c0cc32)" d="M 126.159301 540.2635 
L 126.159301 376.532979 
" style="fill:none;stroke:#b0b0b0;stroke-linecap:square;"/>
     </g>
     <g id="line2d_54">
      <g>
       <use style="stroke:#000000;stroke-width:0.8;" x="126.159301" xlink:href="#m850a58f2d6" y="540.2635"/>
      </g>
     </g>
     <g id="text_16">
      <!-- 0.5 -->
      <g transform="translate(118.207739 554.861938)scale(0.1 -0.1)">
       <defs>
        <path d="M 10.796875 72.90625 
L 49.515625 72.90625 
L 49.515625 64.59375 
L 19.828125 64.59375 
L 19.828125 46.734375 
Q 21.96875 47.46875 24.109375 47.828125 
Q 26.265625 48.1875 28.421875 48.1875 
Q 40.625 48.1875 47.75 41.5 
Q 54.890625 34.8125 54.890625 23.390625 
Q 54.890625 11.625 47.5625 5.09375 
Q 40.234375 -1.421875 26.90625 -1.421875 
Q 22.3125 -1.421875 17.546875 -0.640625 
Q 12.796875 0.140625 7.71875 1.703125 
L 7.71875 11.625 
Q 12.109375 9.234375 16.796875 8.0625 
Q 21.484375 6.890625 26.703125 6.890625 
Q 35.15625 6.890625 40.078125 11.328125 
Q 45.015625 15.765625 45.015625 23.390625 
Q 45.015625 31 40.078125 35.4375 
Q 35.15625 39.890625 26.703125 39.890625 
Q 22.75 39.890625 18.8125 39.015625 
Q 14.890625 38.140625 10.796875 36.28125 
z
" id="DejaVuSans-53"/>
       </defs>
       <use xlink:href="#DejaVuSans-48"/>
       <use x="63.623047" xlink:href="#DejaVuSans-46"/>
       <use x="95.410156" xlink:href="#DejaVuSans-53"/>
      </g>
     </g>
    </g>
    <g id="xtick_15">
     <g id="line2d_55">
      <path clip-path="url(#pd306c0cc32)" d="M 195.580642 540.2635 
L 195.580642 376.532979 
" style="fill:none;stroke:#b0b0b0;stroke-linecap:square;"/>
     </g>
     <g id="line2d_56">
      <g>
       <use style="stroke:#000000;stroke-width:0.8;" x="195.580642" xlink:href="#m850a58f2d6" y="540.2635"/>
      </g>
     </g>
     <g id="text_17">
      <!-- 1.0 -->
      <g transform="translate(187.62908 554.861938)scale(0.1 -0.1)">
       <use xlink:href="#DejaVuSans-49"/>
       <use x="63.623047" xlink:href="#DejaVuSans-46"/>
       <use x="95.410156" xlink:href="#DejaVuSans-48"/>
      </g>
     </g>
    </g>
    <g id="xtick_16">
     <g id="line2d_57">
      <path clip-path="url(#pd306c0cc32)" d="M 265.001983 540.2635 
L 265.001983 376.532979 
" style="fill:none;stroke:#b0b0b0;stroke-linecap:square;"/>
     </g>
     <g id="line2d_58">
      <g>
       <use style="stroke:#000000;stroke-width:0.8;" x="265.001983" xlink:href="#m850a58f2d6" y="540.2635"/>
      </g>
     </g>
     <g id="text_18">
      <!-- 1.5 -->
      <g transform="translate(257.05042 554.861938)scale(0.1 -0.1)">
       <use xlink:href="#DejaVuSans-49"/>
       <use x="63.623047" xlink:href="#DejaVuSans-46"/>
       <use x="95.410156" xlink:href="#DejaVuSans-53"/>
      </g>
     </g>
    </g>
    <g id="xtick_17">
     <g id="line2d_59">
      <path clip-path="url(#pd306c0cc32)" d="M 334.423324 540.2635 
L 334.423324 376.532979 
" style="fill:none;stroke:#b0b0b0;stroke-linecap:square;"/>
     </g>
     <g id="line2d_60">
      <g>
       <use style="stroke:#000000;stroke-width:0.8;" x="334.423324" xlink:href="#m850a58f2d6" y="540.2635"/>
      </g>
     </g>
     <g id="text_19">
      <!-- 2.0 -->
      <g transform="translate(326.471761 554.861938)scale(0.1 -0.1)">
       <use xlink:href="#DejaVuSans-50"/>
       <use x="63.623047" xlink:href="#DejaVuSans-46"/>
       <use x="95.410156" xlink:href="#DejaVuSans-48"/>
      </g>
     </g>
    </g>
    <g id="xtick_18">
     <g id="line2d_61">
      <path clip-path="url(#pd306c0cc32)" d="M 403.844665 540.2635 
L 403.844665 376.532979 
" style="fill:none;stroke:#b0b0b0;stroke-linecap:square;"/>
     </g>
     <g id="line2d_62">
      <g>
       <use style="stroke:#000000;stroke-width:0.8;" x="403.844665" xlink:href="#m850a58f2d6" y="540.2635"/>
      </g>
     </g>
     <g id="text_20">
      <!-- 2.5 -->
      <g transform="translate(395.893102 554.861938)scale(0.1 -0.1)">
       <use xlink:href="#DejaVuSans-50"/>
       <use x="63.623047" xlink:href="#DejaVuSans-46"/>
       <use x="95.410156" xlink:href="#DejaVuSans-53"/>
      </g>
     </g>
    </g>
    <g id="text_21">
     <!-- $t$ -->
     <g transform="translate(228.291312 568.540062)scale(0.1 -0.1)">
      <use transform="translate(0 0.78125)" xlink:href="#DejaVuSans-Oblique-116"/>
     </g>
    </g>
   </g>
   <g id="matplotlib.axis_6">
    <g id="ytick_11">
     <g id="line2d_63">
      <path clip-path="url(#pd306c0cc32)" d="M 39.382625 540.2635 
L 421.2 540.2635 
" style="fill:none;stroke:#b0b0b0;stroke-linecap:square;"/>
     </g>
     <g id="line2d_64">
      <g>
       <use style="stroke:#000000;stroke-width:0.8;" x="39.382625" xlink:href="#m62f3d0d436" y="540.2635"/>
      </g>
     </g>
     <g id="text_22">
      <!-- −2 -->
      <g transform="translate(17.640438 544.062719)scale(0.1 -0.1)">
       <use xlink:href="#DejaVuSans-8722"/>
       <use x="83.789062" xlink:href="#DejaVuSans-50"/>
      </g>
     </g>
    </g>
    <g id="ytick_12">
     <g id="line2d_65">
      <path clip-path="url(#pd306c0cc32)" d="M 39.382625 499.33087 
L 421.2 499.33087 
" style="fill:none;stroke:#b0b0b0;stroke-linecap:square;"/>
     </g>
     <g id="line2d_66">
      <g>
       <use style="stroke:#000000;stroke-width:0.8;" x="39.382625" xlink:href="#m62f3d0d436" y="499.33087"/>
      </g>
     </g>
     <g id="text_23">
      <!-- −1 -->
      <g transform="translate(17.640438 503.130089)scale(0.1 -0.1)">
       <use xlink:href="#DejaVuSans-8722"/>
       <use x="83.789062" xlink:href="#DejaVuSans-49"/>
      </g>
     </g>
    </g>
    <g id="ytick_13">
     <g id="line2d_67">
      <path clip-path="url(#pd306c0cc32)" d="M 39.382625 458.39824 
L 421.2 458.39824 
" style="fill:none;stroke:#b0b0b0;stroke-linecap:square;"/>
     </g>
     <g id="line2d_68">
      <g>
       <use style="stroke:#000000;stroke-width:0.8;" x="39.382625" xlink:href="#m62f3d0d436" y="458.39824"/>
      </g>
     </g>
     <g id="text_24">
      <!-- 0 -->
      <g transform="translate(26.020125 462.197458)scale(0.1 -0.1)">
       <use xlink:href="#DejaVuSans-48"/>
      </g>
     </g>
    </g>
    <g id="ytick_14">
     <g id="line2d_69">
      <path clip-path="url(#pd306c0cc32)" d="M 39.382625 417.465609 
L 421.2 417.465609 
" style="fill:none;stroke:#b0b0b0;stroke-linecap:square;"/>
     </g>
     <g id="line2d_70">
      <g>
       <use style="stroke:#000000;stroke-width:0.8;" x="39.382625" xlink:href="#m62f3d0d436" y="417.465609"/>
      </g>
     </g>
     <g id="text_25">
      <!-- 1 -->
      <g transform="translate(26.020125 421.264828)scale(0.1 -0.1)">
       <use xlink:href="#DejaVuSans-49"/>
      </g>
     </g>
    </g>
    <g id="ytick_15">
     <g id="line2d_71">
      <path clip-path="url(#pd306c0cc32)" d="M 39.382625 376.532979 
L 421.2 376.532979 
" style="fill:none;stroke:#b0b0b0;stroke-linecap:square;"/>
     </g>
     <g id="line2d_72">
      <g>
       <use style="stroke:#000000;stroke-width:0.8;" x="39.382625" xlink:href="#m62f3d0d436" y="376.532979"/>
      </g>
     </g>
     <g id="text_26">
      <!-- 2 -->
      <g transform="translate(26.020125 380.332198)scale(0.1 -0.1)">
       <use xlink:href="#DejaVuSans-50"/>
      </g>
     </g>
    </g>
    <g id="text_27">
     <!-- $y_1 + y_2$ -->
     <g transform="translate(11.540438 475.19824)rotate(-90)scale(0.1 -0.1)">
      <defs>
       <path d="M 46 62.703125 
L 46 35.5 
L 73.1875 35.5 
L 73.1875 27.203125 
L 46 27.203125 
L 46 0 
L 37.796875 0 
L 37.796875 27.203125 
L 10.59375 27.203125 
L 10.59375 35.5 
L 37.796875 35.5 
L 37.796875 62.703125 
z
" id="DejaVuSans-43"/>
      </defs>
      <use transform="translate(0 0.296875)" xlink:href="#DejaVuSans-Oblique-121"/>
      <use transform="translate(59.179688 -16.109375)scale(0.7)" xlink:href="#DejaVuSans-49"/>
      <use transform="translate(125.932617 0.296875)" xlink:href="#DejaVuSans-43"/>
      <use transform="translate(229.204102 0.296875)" xlink:href="#DejaVuSans-Oblique-121"/>
      <use transform="translate(288.383789 -16.109375)scale(0.7)" xlink:href="#DejaVuSans-50"/>
     </g>
    </g>
   </g>
   <g id="line2d_73">
    <path clip-path="url(#pd306c0cc32)" d="M 56.73796 376.532979 
L 58.482215 381.703178 
L 60.22647 396.529894 
L 61.970725 419.055661 
L 67.203489 500.699691 
L 68.947744 520.851893 
L 70.691999 532.742175 
L 72.436253 535.035936 
L 74.180508 527.692746 
L 75.924763 511.941695 
L 77.669018 490.082518 
L 81.157527 440.451474 
L 82.901782 419.165178 
L 84.646037 403.857957 
L 86.390292 396.188528 
L 88.134547 396.715217 
L 89.878801 404.871495 
L 91.623056 419.101089 
L 93.367311 437.127146 
L 95.111566 456.311103 
L 96.855821 474.045234 
L 98.600075 488.119791 
L 100.34433 497.01166 
L 102.088585 500.055178 
L 103.83284 497.475132 
L 105.577095 490.283707 
L 107.321349 480.064005 
L 110.809859 457.958362 
L 112.554114 449.405213 
L 114.298369 443.983467 
L 116.042623 442.002246 
L 117.786878 443.120644 
L 119.531133 446.463966 
L 123.019643 454.930935 
L 124.763897 457.673699 
L 126.508152 458.352372 
L 128.252407 456.79579 
L 129.996662 453.398154 
L 133.485171 444.932175 
L 135.229426 442.347402 
L 136.973681 442.390002 
L 138.717936 445.741451 
L 140.46219 452.490684 
L 142.206445 462.060681 
L 145.694955 484.398616 
L 147.43921 493.621961 
L 149.183464 499.132763 
L 150.927719 499.544531 
L 152.671974 494.139689 
L 154.416229 483.044585 
L 156.160484 467.279739 
L 159.648993 429.626472 
L 161.393248 412.81392 
L 163.137503 400.773466 
L 164.881758 395.532938 
L 166.626012 398.278324 
L 168.370267 409.133824 
L 170.114522 427.088742 
L 171.858777 450.087798 
L 175.347286 499.376889 
L 177.091541 519.124439 
L 178.835796 531.734675 
L 180.580051 535.302157 
L 182.324306 529.091041 
L 184.06856 513.666733 
L 185.812815 490.847477 
L 191.04558 409.292744 
L 192.789834 389.539563 
L 194.534089 378.407605 
L 196.278344 377.368008 
L 198.022599 386.558313 
L 199.766854 404.763524 
L 201.511108 429.583336 
L 204.999618 485.632392 
L 206.743873 509.616223 
L 208.488128 526.702165 
L 210.232382 534.843105 
L 211.976637 533.213328 
L 213.720892 522.29336 
L 215.465147 503.773351 
L 217.209402 480.292106 
L 220.697911 431.366882 
L 222.442166 412.208708 
L 224.186421 399.816698 
L 225.930676 395.422943 
L 227.67493 399.129513 
L 229.419185 409.949457 
L 231.16344 425.999792 
L 234.651949 463.714971 
L 236.396204 480.217333 
L 238.140459 492.355961 
L 239.884714 498.937722 
L 241.628969 499.657069 
L 243.373223 495.073178 
L 245.117478 486.457753 
L 250.350243 454.209125 
L 252.094497 446.828269 
L 253.838752 442.783412 
L 255.583007 442.116536 
L 257.327262 444.253642 
L 259.071517 448.159882 
L 260.815771 452.568506 
L 262.560026 456.241483 
L 264.304281 458.215238 
L 266.048536 457.988239 
L 267.792791 455.617689 
L 269.537045 451.70853 
L 271.2813 447.29665 
L 273.025555 443.646629 
L 274.76981 441.999337 
L 276.514065 443.313957 
L 278.258319 448.050711 
L 280.002574 456.03462 
L 281.746829 466.427701 
L 283.491084 477.819293 
L 285.235339 488.42444 
L 286.979593 496.361635 
L 288.723848 499.966922 
L 290.468103 498.093592 
L 292.212358 490.347057 
L 293.956613 477.21301 
L 295.700867 460.052483 
L 299.189377 422.484277 
L 300.933632 407.296111 
L 302.677887 397.773013 
L 304.422141 395.640512 
L 306.166396 401.678689 
L 307.910651 415.557527 
L 309.654906 435.828494 
L 314.88767 507.969532 
L 316.631925 525.15519 
L 318.37618 534.316431 
L 320.120435 533.988965 
L 321.864689 523.951506 
L 323.608944 505.286652 
L 325.353199 480.25998 
L 328.841709 424.237513 
L 330.585963 400.501676 
L 332.330218 383.941523 
L 334.074473 376.742016 
L 335.818728 379.855244 
L 337.562982 392.869348 
L 339.307237 414.065243 
L 341.051492 440.653064 
L 344.540002 495.878473 
L 346.284256 517.418092 
L 348.028511 531.107304 
L 349.772766 535.365824 
L 351.517021 529.890501 
L 353.261276 515.66716 
L 355.00553 494.8048 
L 358.49404 445.212628 
L 360.238295 423.014977 
L 361.98255 406.346327 
L 363.726804 397.068057 
L 365.471059 395.96583 
L 367.215314 402.692157 
L 368.959569 415.870932 
L 370.703824 433.342822 
L 374.192333 470.728827 
L 375.936588 485.682414 
L 377.680843 495.692885 
L 379.425098 499.915922 
L 381.169352 498.402316 
L 382.913607 492.020935 
L 384.657862 482.262246 
L 388.146372 459.970598 
L 389.890626 450.887116 
L 391.634881 444.792727 
L 393.379136 442.130886 
L 395.123391 442.684734 
L 396.867646 445.672344 
L 400.356155 454.188459 
L 402.10041 457.274846 
L 403.844665 458.39824 
L 403.844665 458.39824 
" style="fill:none;stroke:#0000ff;stroke-linecap:square;stroke-width:1.5;"/>
   </g>
   <g id="line2d_74">
    <path clip-path="url(#pd306c0cc32)" d="M 56.73796 376.532979 
L 58.482215 376.59673 
L 60.22647 376.787884 
L 61.970725 377.106142 
L 63.714979 377.55101 
L 65.459234 378.121795 
L 67.203489 378.817606 
L 70.691999 380.579785 
L 74.180508 382.826571 
L 77.669018 385.543973 
L 81.157527 388.71507 
L 84.646037 392.320113 
L 88.134547 396.336652 
L 91.623056 400.739675 
L 95.111566 405.501762 
L 98.600075 410.593257 
L 102.088585 415.982454 
L 107.321349 424.55057 
L 112.554114 433.592642 
L 119.531133 446.166429 
L 140.46219 484.432337 
L 145.694955 493.418402 
L 150.927719 501.914095 
L 154.416229 507.24638 
L 157.904738 512.274467 
L 161.393248 516.967045 
L 164.881758 521.29489 
L 168.370267 525.231051 
L 171.858777 528.751016 
L 175.347286 531.832865 
L 178.835796 534.457406 
L 182.324306 536.608294 
L 185.812815 538.272136 
L 187.55707 538.918056 
L 189.301325 539.438569 
L 191.04558 539.832865 
L 192.789834 540.100331 
L 194.534089 540.240548 
L 196.278344 540.253299 
L 198.022599 540.138564 
L 199.766854 539.896521 
L 201.511108 539.527548 
L 203.255363 539.03222 
L 204.999618 538.411307 
L 206.743873 537.665777 
L 210.232382 535.805701 
L 213.720892 533.463577 
L 217.209402 530.65399 
L 220.697911 527.394436 
L 224.186421 523.705213 
L 227.67493 519.609297 
L 231.16344 515.132194 
L 234.651949 510.301785 
L 238.140459 505.14815 
L 243.373223 496.882358 
L 248.605988 488.077689 
L 253.838752 478.857429 
L 262.560026 462.919333 
L 276.514065 437.313999 
L 281.746829 428.117484 
L 286.979593 419.344979 
L 292.212358 411.11932 
L 295.700867 405.996596 
L 299.189377 401.200198 
L 302.677887 396.759997 
L 306.166396 392.703643 
L 309.654906 389.056396 
L 313.143415 385.840971 
L 316.631925 383.07739 
L 320.120435 380.782863 
L 323.608944 378.97168 
L 325.353199 378.250987 
L 327.097454 377.65512 
L 328.841709 377.185007 
L 330.585963 376.84138 
L 332.330218 376.624775 
L 334.074473 376.53553 
L 335.818728 376.573782 
L 337.562982 376.739472 
L 339.307237 377.032343 
L 341.051492 377.451938 
L 342.795747 377.997604 
L 344.540002 378.668491 
L 346.284256 379.463554 
L 349.772766 381.421063 
L 353.261276 383.857941 
L 356.749785 386.759013 
L 360.238295 390.106212 
L 363.726804 393.878694 
L 367.215314 398.052967 
L 370.703824 402.603035 
L 374.192333 407.500563 
L 377.680843 412.715052 
L 382.913607 421.059563 
L 388.146372 429.926913 
L 395.123391 442.347905 
L 403.844665 458.39824 
L 403.844665 458.39824 
" style="fill:none;stroke:#ff0000;stroke-dasharray:1.5,2.475;stroke-dashoffset:0;stroke-width:1.5;"/>
   </g>
   <g id="line2d_75">
    <path clip-path="url(#pd306c0cc32)" d="M 56.73796 540.2635 
L 58.482215 540.199749 
L 60.22647 540.008595 
L 61.970725 539.690337 
L 63.714979 539.245469 
L 65.459234 538.674684 
L 67.203489 537.978873 
L 70.691999 536.216695 
L 74.180508 533.969908 
L 77.669018 531.252506 
L 81.157527 528.081409 
L 84.646037 524.476366 
L 88.134547 520.459827 
L 91.623056 516.056804 
L 95.111566 511.294717 
L 98.600075 506.203222 
L 102.088585 500.814025 
L 107.321349 492.245909 
L 112.554114 483.203838 
L 119.531133 470.63005 
L 140.46219 432.364142 
L 145.694955 423.378077 
L 150.927719 414.882384 
L 154.416229 409.550099 
L 157.904738 404.522012 
L 161.393248 399.829435 
L 164.881758 395.50159 
L 168.370267 391.565429 
L 171.858777 388.045463 
L 175.347286 384.963614 
L 178.835796 382.339074 
L 182.324306 380.188185 
L 185.812815 378.524343 
L 187.55707 377.878423 
L 189.301325 377.35791 
L 191.04558 376.963614 
L 192.789834 376.696149 
L 194.534089 376.555931 
L 196.278344 376.54318 
L 198.022599 376.657916 
L 199.766854 376.899958 
L 201.511108 377.268931 
L 203.255363 377.76426 
L 204.999618 378.385172 
L 206.743873 379.130703 
L 210.232382 380.990778 
L 213.720892 383.332902 
L 217.209402 386.142489 
L 220.697911 389.402043 
L 224.186421 393.091266 
L 227.67493 397.187182 
L 231.16344 401.664285 
L 234.651949 406.494694 
L 238.140459 411.648329 
L 243.373223 419.914121 
L 248.605988 428.718791 
L 253.838752 437.93905 
L 262.560026 453.877146 
L 276.514065 479.48248 
L 281.746829 488.678995 
L 286.979593 497.451501 
L 292.212358 505.677159 
L 295.700867 510.799884 
L 299.189377 515.596281 
L 302.677887 520.036482 
L 306.166396 524.092836 
L 309.654906 527.740083 
L 313.143415 530.955508 
L 316.631925 533.719089 
L 320.120435 536.013616 
L 323.608944 537.824799 
L 325.353199 538.545492 
L 327.097454 539.14136 
L 328.841709 539.611473 
L 330.585963 539.955099 
L 332.330218 540.171704 
L 334.074473 540.26095 
L 335.818728 540.222697 
L 337.562982 540.057007 
L 339.307237 539.764136 
L 341.051492 539.344541 
L 342.795747 538.798875 
L 344.540002 538.127988 
L 346.284256 537.332925 
L 349.772766 535.375416 
L 353.261276 532.938538 
L 356.749785 530.037467 
L 360.238295 526.690267 
L 363.726804 522.917785 
L 367.215314 518.743512 
L 370.703824 514.193445 
L 374.192333 509.295917 
L 377.680843 504.081427 
L 382.913607 495.736916 
L 388.146372 486.869566 
L 395.123391 474.448575 
L 403.844665 458.39824 
L 403.844665 458.39824 
" style="fill:none;stroke:#ff0000;stroke-dasharray:1.5,2.475;stroke-dashoffset:0;stroke-width:1.5;"/>
   </g>
   <g id="patch_15">
    <path d="M 39.382625 540.2635 
L 39.382625 376.532979 
" style="fill:none;stroke:#000000;stroke-linecap:square;stroke-linejoin:miter;stroke-width:0.8;"/>
   </g>
   <g id="patch_16">
    <path d="M 421.2 540.2635 
L 421.2 376.532979 
" style="fill:none;stroke:#000000;stroke-linecap:square;stroke-linejoin:miter;stroke-width:0.8;"/>
   </g>
   <g id="patch_17">
    <path d="M 39.382625 540.2635 
L 421.2 540.2635 
" style="fill:none;stroke:#000000;stroke-linecap:square;stroke-linejoin:miter;stroke-width:0.8;"/>
   </g>
   <g id="patch_18">
    <path d="M 39.382625 376.532979 
L 421.2 376.532979 
" style="fill:none;stroke:#000000;stroke-linecap:square;stroke-linejoin:miter;stroke-width:0.8;"/>
   </g>
   <g id="legend_3">
    <g id="patch_19">
     <path d="M 281.6 413.889229 
L 414.2 413.889229 
Q 416.2 413.889229 416.2 411.889229 
L 416.2 383.532979 
Q 416.2 381.532979 414.2 381.532979 
L 281.6 381.532979 
Q 279.6 381.532979 279.6 383.532979 
L 279.6 411.889229 
Q 279.6 413.889229 281.6 413.889229 
z
" style="fill:#ffffff;opacity:0.8;stroke:#cccccc;stroke-linejoin:miter;"/>
    </g>
    <g id="line2d_76">
     <path d="M 283.6 389.631417 
L 303.6 389.631417 
" style="fill:none;stroke:#0000ff;stroke-linecap:square;stroke-width:1.5;"/>
    </g>
    <g id="line2d_77"/>
    <g id="text_28">
     <!-- $\cos(8\pi t) + \cos(10 \pi t)$ -->
     <g transform="translate(311.6 393.131417)scale(0.1 -0.1)">
      <use transform="translate(0 0.125)" xlink:href="#DejaVuSans-99"/>
      <use transform="translate(54.980469 0.125)" xlink:href="#DejaVuSans-111"/>
      <use transform="translate(116.162109 0.125)" xlink:href="#DejaVuSans-115"/>
      <use transform="translate(168.261719 0.125)" xlink:href="#DejaVuSans-40"/>
      <use transform="translate(207.275391 0.125)" xlink:href="#DejaVuSans-56"/>
      <use transform="translate(270.898438 0.125)" xlink:href="#DejaVuSans-Oblique-960"/>
      <use transform="translate(331.103516 0.125)" xlink:href="#DejaVuSans-Oblique-116"/>
      <use transform="translate(370.3125 0.125)" xlink:href="#DejaVuSans-41"/>
      <use transform="translate(428.808594 0.125)" xlink:href="#DejaVuSans-43"/>
      <use transform="translate(532.080078 0.125)" xlink:href="#DejaVuSans-99"/>
      <use transform="translate(587.060547 0.125)" xlink:href="#DejaVuSans-111"/>
      <use transform="translate(648.242188 0.125)" xlink:href="#DejaVuSans-115"/>
      <use transform="translate(700.341797 0.125)" xlink:href="#DejaVuSans-40"/>
      <use transform="translate(739.355469 0.125)" xlink:href="#DejaVuSans-49"/>
      <use transform="translate(802.978516 0.125)" xlink:href="#DejaVuSans-48"/>
      <use transform="translate(866.601562 0.125)" xlink:href="#DejaVuSans-Oblique-960"/>
      <use transform="translate(926.806641 0.125)" xlink:href="#DejaVuSans-Oblique-116"/>
      <use transform="translate(966.015625 0.125)" xlink:href="#DejaVuSans-41"/>
     </g>
    </g>
    <g id="line2d_78">
     <path d="M 283.6 404.309542 
L 303.6 404.309542 
" style="fill:none;stroke:#ff0000;stroke-dasharray:1.5,2.475;stroke-dashoffset:0;stroke-width:1.5;"/>
    </g>
    <g id="line2d_79"/>
    <g id="text_29">
     <!-- $\pm 2 \cos(\pi t)$ -->
     <g transform="translate(311.6 407.809542)scale(0.1 -0.1)">
      <defs>
       <path d="M 46 62.703125 
L 46 43.796875 
L 73.1875 43.796875 
L 73.1875 35.5 
L 46 35.5 
L 46 16.609375 
L 37.796875 16.609375 
L 37.796875 35.5 
L 10.59375 35.5 
L 10.59375 43.796875 
L 37.796875 43.796875 
L 37.796875 62.703125 
z
M 10.59375 8.296875 
L 73.1875 8.296875 
L 73.1875 0 
L 10.59375 0 
z
" id="DejaVuSans-177"/>
      </defs>
      <use transform="translate(0 0.125)" xlink:href="#DejaVuSans-177"/>
      <use transform="translate(83.789062 0.125)" xlink:href="#DejaVuSans-50"/>
      <use transform="translate(147.412109 0.125)" xlink:href="#DejaVuSans-99"/>
      <use transform="translate(202.392578 0.125)" xlink:href="#DejaVuSans-111"/>
      <use transform="translate(263.574219 0.125)" xlink:href="#DejaVuSans-115"/>
      <use transform="translate(315.673828 0.125)" xlink:href="#DejaVuSans-40"/>
      <use transform="translate(354.6875 0.125)" xlink:href="#DejaVuSans-Oblique-960"/>
      <use transform="translate(414.892578 0.125)" xlink:href="#DejaVuSans-Oblique-116"/>
      <use transform="translate(454.101562 0.125)" xlink:href="#DejaVuSans-41"/>
     </g>
    </g>
   </g>
  </g>
 </g>
 <defs>
  <clipPath id="p7afbd4ca32">
   <rect height="163.730521" width="381.817375" x="39.382625" y="13.535438"/>
  </clipPath>
  <clipPath id="p418758c7eb">
   <rect height="163.730521" width="381.817375" x="39.382625" y="195.034208"/>
  </clipPath>
  <clipPath id="pd306c0cc32">
   <rect height="163.730521" width="381.817375" x="39.382625" y="376.532979"/>
  </clipPath>
 </defs>
</svg>
