<?xml version="1.0" encoding="utf-8" standalone="no"?>
<!DOCTYPE svg PUBLIC "-//W3C//DTD SVG 1.1//EN"
  "http://www.w3.org/Graphics/SVG/1.1/DTD/svg11.dtd">
<!-- Created with matplotlib (https://matplotlib.org/) -->
<svg height="216pt" version="1.1" viewBox="0 0 576 216" width="576pt" xmlns="http://www.w3.org/2000/svg" xmlns:xlink="http://www.w3.org/1999/xlink">
 <defs>
  <style type="text/css">
*{stroke-linecap:butt;stroke-linejoin:round;}
  </style>
 </defs>
 <g id="figure_1">
  <g id="patch_1">
   <path d="M 0 216 
L 576 216 
L 576 0 
L 0 0 
z
" style="fill:#ffffff;"/>
  </g>
  <g id="axes_1">
   <g id="patch_2">
    <path d="M 72 166.946667 
L 518.4 166.946667 
L 518.4 51.213333 
L 72 51.213333 
z
" style="fill:#ffffff;"/>
   </g>
   <g id="patch_3">
    <path clip-path="url(#p2979d29838)" d="M 121.6 150.413333 
C 130.369383 150.413333 138.780774 146.929221 144.981664 140.728331 
C 151.182554 134.527441 154.666667 126.116049 154.666667 117.346667 
C 154.666667 108.577284 151.182554 100.165892 144.981664 93.965002 
C 138.780774 87.764113 130.369383 84.28 121.6 84.28 
C 112.830617 84.28 104.419226 87.764113 98.218336 93.965002 
C 92.017446 100.165892 88.533333 108.577284 88.533333 117.346667 
C 88.533333 126.116049 92.017446 134.527441 98.218336 140.728331 
C 104.419226 146.929221 112.830617 150.413333 121.6 150.413333 
z
" style="fill:none;stroke:#000000;stroke-dasharray:3.7,1.6;stroke-dashoffset:0;stroke-linejoin:miter;"/>
   </g>
   <g id="patch_4">
    <path clip-path="url(#p2979d29838)" d="M 204.705598 150.413333 
C 213.47498 150.413333 221.886372 146.929221 228.087262 140.728331 
C 234.288152 134.527441 237.772264 126.116049 237.772264 117.346667 
C 237.772264 108.577284 234.288152 100.165892 228.087262 93.965002 
C 221.886372 87.764113 213.47498 84.28 204.705598 84.28 
C 195.936215 84.28 187.524823 87.764113 181.323933 93.965002 
C 175.123044 100.165892 171.638931 108.577284 171.638931 117.346667 
C 171.638931 126.116049 175.123044 134.527441 181.323933 140.728331 
C 187.524823 146.929221 195.936215 150.413333 204.705598 150.413333 
z
" style="fill:none;stroke:#000000;stroke-linejoin:miter;"/>
   </g>
   <g id="patch_5">
    <path clip-path="url(#p2979d29838)" d="M 287.811195 150.413333 
C 296.580578 150.413333 304.99197 146.929221 311.19286 140.728331 
C 317.393749 134.527441 320.877862 126.116049 320.877862 117.346667 
C 320.877862 108.577284 317.393749 100.165892 311.19286 93.965002 
C 304.99197 87.764113 296.580578 84.28 287.811195 84.28 
C 279.041813 84.28 270.630421 87.764113 264.429531 93.965002 
C 258.228641 100.165892 254.744529 108.577284 254.744529 117.346667 
C 254.744529 126.116049 258.228641 134.527441 264.429531 140.728331 
C 270.630421 146.929221 279.041813 150.413333 287.811195 150.413333 
z
" style="fill:none;stroke:#000000;stroke-dasharray:3.7,1.6;stroke-dashoffset:0;stroke-linejoin:miter;"/>
   </g>
   <g id="patch_6">
    <path clip-path="url(#p2979d29838)" d="M 370.916793 150.413333 
C 379.686175 150.413333 388.097567 146.929221 394.298457 140.728331 
C 400.499347 134.527441 403.98346 126.116049 403.98346 117.346667 
C 403.98346 108.577284 400.499347 100.165892 394.298457 93.965002 
C 388.097567 87.764113 379.686175 84.28 370.916793 84.28 
C 362.14741 84.28 353.736019 87.764113 347.535129 93.965002 
C 341.334239 100.165892 337.850126 108.577284 337.850126 117.346667 
C 337.850126 126.116049 341.334239 134.527441 347.535129 140.728331 
C 353.736019 146.929221 362.14741 150.413333 370.916793 150.413333 
z
" style="fill:none;stroke:#000000;stroke-dasharray:3.7,1.6;stroke-dashoffset:0;stroke-linejoin:miter;"/>
   </g>
   <g id="patch_7">
    <path clip-path="url(#p2979d29838)" d="M 454.022391 150.413333 
C 462.791773 150.413333 471.203165 146.929221 477.404055 140.728331 
C 483.604945 134.527441 487.089057 126.116049 487.089057 117.346667 
C 487.089057 108.577284 483.604945 100.165892 477.404055 93.965002 
C 471.203165 87.764113 462.791773 84.28 454.022391 84.28 
C 445.253008 84.28 436.841616 87.764113 430.640726 93.965002 
C 424.439837 100.165892 420.955724 108.577284 420.955724 117.346667 
C 420.955724 126.116049 424.439837 134.527441 430.640726 140.728331 
C 436.841616 146.929221 445.253008 150.413333 454.022391 150.413333 
z
" style="fill:none;stroke:#000000;stroke-dasharray:3.7,1.6;stroke-dashoffset:0;stroke-linejoin:miter;"/>
   </g>
   <g id="matplotlib.axis_1"/>
   <g id="matplotlib.axis_2"/>
   <g id="line2d_1">
    <path clip-path="url(#p2979d29838)" d="M 121.6 150.413333 
L 121.69954 149.279108 
L 122.005526 147.535698 
L 122.645945 145.043964 
L 123.734103 141.86567 
L 124.759295 139.403647 
L 126.056202 136.698346 
L 127.64884 133.779604 
L 129.557963 130.679614 
L 131.800836 127.432568 
L 134.391039 124.074279 
L 137.338324 120.641787 
L 140.648504 117.172952 
L 144.32339 113.706032 
L 148.360768 110.279268 
L 152.75443 106.930453 
L 157.494235 103.696524 
L 162.566224 100.613151 
L 167.952777 97.714341 
L 173.632803 95.032066 
L 179.581973 92.595911 
L 185.77299 90.432746 
L 192.175891 88.56643 
L 198.758375 87.017546 
L 205.48616 85.803179 
L 212.323362 84.936723 
L 219.232889 84.427734 
L 226.176854 84.281825 
L 233.116986 84.500607 
L 240.015059 85.081666 
L 246.833312 86.018594 
L 253.534862 87.301056 
L 260.084114 88.914908 
L 266.447153 90.842349 
L 272.592117 93.062121 
L 278.489551 95.549741 
L 284.112728 98.277771 
L 289.437948 101.216122 
L 294.444796 104.332386 
L 299.116368 107.592191 
L 303.43946 110.959584 
L 307.40471 114.397424 
L 311.006703 117.867792 
L 314.24403 121.332413 
L 317.119307 124.753073 
L 319.639139 128.092043 
L 321.814055 131.312497 
L 323.658385 134.378913 
L 325.190109 137.257472 
L 326.949311 141.154279 
L 328.139684 144.460943 
L 328.860903 147.0955 
L 329.286443 149.452476 
L 329.364045 150.406033 
L 329.395351 149.887243 
L 329.685359 147.945905 
L 330.249519 145.599468 
L 331.239559 142.552703 
L 332.76012 138.881131 
L 334.114352 136.130674 
L 335.768736 133.173038 
L 337.743343 130.040844 
L 340.054716 126.768639 
L 342.71568 123.392514 
L 345.735206 119.949706 
L 349.118312 116.478188 
L 352.866001 113.016249 
L 356.975261 109.602072 
L 361.439086 106.273314 
L 366.246564 103.066691 
L 371.38299 100.017569 
L 376.830032 97.15958 
L 382.565932 94.524244 
L 388.565745 92.14063 
L 394.801616 90.035028 
L 401.243087 88.23066 
L 407.85743 86.747429 
L 414.610014 85.601693 
L 421.464679 84.806091 
L 428.384143 84.369396 
L 435.330407 84.296426 
L 442.265177 84.587985 
L 449.150285 85.240857 
L 455.948113 86.247842 
L 462.622003 87.597834 
L 469.136665 89.275941 
L 475.458565 91.263656 
L 481.556297 93.539055 
L 487.400925 96.077041 
L 492.966305 98.849621 
L 498.229374 101.826216 
L 503.170403 104.973994 
L 507.773215 108.258237 
L 512.025362 111.642721 
L 515.918266 115.090118 
L 519.44731 118.562403 
L 522.61189 122.021279 
L 525.415422 125.428596 
L 527.865305 128.746773 
L 529.972838 131.939212 
L 531.753096 134.970702 
L 533.224763 137.807807 
L 534.902846 141.631212 
L 536.024625 144.852653 
L 536.691476 147.392277 
L 537.068931 149.611667 
L 537.127982 150.411508 
L 537.171748 149.75661 
L 537.504018 147.675787 
L 538.118509 145.232217 
L 539.173501 142.097422 
L 540.17296 139.661267 
L 541.441563 136.978993 
L 543.003638 134.080182 
L 544.880277 130.996809 
L 547.089101 127.76288 
L 549.644068 124.414066 
L 552.555318 120.987301 
L 555.829061 117.520382 
L 559.467509 114.051546 
L 563.468853 110.619055 
L 567.827278 107.260765 
L 572.533035 104.013719 
L 577 101.255721 
L 577 101.255721 
" style="fill:none;stroke:#0000ff;stroke-linecap:square;stroke-width:0.8;"/>
   </g>
   <g id="line2d_2">
    <path clip-path="url(#p2979d29838)" d="M 121.6 117.346667 
L 121.6 150.413333 
" style="fill:none;stroke:#ff0000;stroke-linecap:square;"/>
   </g>
   <g id="line2d_3">
    <path clip-path="url(#p2979d29838)" d="M 121.6 150.413333 
L 121.6 117.346667 
" style="fill:none;stroke:#000000;stroke-dasharray:3.7,1.6;stroke-dashoffset:0;"/>
   </g>
   <g id="line2d_4">
    <path clip-path="url(#p2979d29838)" d="M 204.705598 117.346667 
L 185.269499 90.595171 
" style="fill:none;stroke:#ff0000;stroke-linecap:square;"/>
   </g>
   <g id="line2d_5">
    <path clip-path="url(#p2979d29838)" d="M 204.705598 150.413333 
L 204.705598 117.346667 
" style="fill:none;stroke:#000000;stroke-dasharray:3.7,1.6;stroke-dashoffset:0;"/>
   </g>
   <g id="line2d_6">
    <path clip-path="url(#p2979d29838)" d="M 287.811195 117.346667 
L 319.259464 127.564829 
" style="fill:none;stroke:#ff0000;stroke-linecap:square;"/>
   </g>
   <g id="line2d_7">
    <path clip-path="url(#p2979d29838)" d="M 287.811195 150.413333 
L 287.811195 117.346667 
" style="fill:none;stroke:#000000;stroke-dasharray:3.7,1.6;stroke-dashoffset:0;"/>
   </g>
   <g id="line2d_8">
    <path clip-path="url(#p2979d29838)" d="M 370.916793 117.346667 
L 339.468524 127.564829 
" style="fill:none;stroke:#ff0000;stroke-linecap:square;"/>
   </g>
   <g id="line2d_9">
    <path clip-path="url(#p2979d29838)" d="M 370.916793 150.413333 
L 370.916793 117.346667 
" style="fill:none;stroke:#000000;stroke-dasharray:3.7,1.6;stroke-dashoffset:0;"/>
   </g>
   <g id="line2d_10">
    <path clip-path="url(#p2979d29838)" d="M 454.022391 117.346667 
L 473.45849 90.595171 
" style="fill:none;stroke:#ff0000;stroke-linecap:square;"/>
   </g>
   <g id="line2d_11">
    <path clip-path="url(#p2979d29838)" d="M 454.022391 150.413333 
L 454.022391 117.346667 
" style="fill:none;stroke:#000000;stroke-dasharray:3.7,1.6;stroke-dashoffset:0;"/>
   </g>
   <g id="patch_8">
    <path d="M 121.6 166.946667 
L 121.6 51.213333 
" style="fill:none;stroke:#000000;stroke-linecap:square;stroke-linejoin:miter;"/>
   </g>
   <g id="patch_9">
    <path d="M 72 150.413333 
L 518.4 150.413333 
" style="fill:none;stroke:#000000;stroke-linecap:square;stroke-linejoin:miter;"/>
   </g>
   <g id="text_1">
    <!-- $x$ -->
    <defs>
     <path d="M 60.015625 54.6875 
L 34.90625 27.875 
L 50.296875 0 
L 39.984375 0 
L 28.421875 21.6875 
L 8.296875 0 
L -2.59375 0 
L 24.3125 28.8125 
L 10.015625 54.6875 
L 20.3125 54.6875 
L 30.8125 34.90625 
L 49.125 54.6875 
z
" id="DejaVuSans-Oblique-120"/>
    </defs>
    <g transform="translate(496.08 163.474667)scale(0.14 -0.14)">
     <use transform="translate(0 0.3125)" xlink:href="#DejaVuSans-Oblique-120"/>
    </g>
   </g>
   <g id="text_2">
    <!-- $y$ -->
    <defs>
     <path d="M 24.8125 -5.078125 
Q 18.5625 -15.578125 14.625 -18.1875 
Q 10.6875 -20.796875 4.59375 -20.796875 
L -2.484375 -20.796875 
L -0.984375 -13.28125 
L 4.203125 -13.28125 
Q 7.953125 -13.28125 10.59375 -11.234375 
Q 13.234375 -9.1875 16.5 -3.21875 
L 19.28125 2 
L 7.171875 54.6875 
L 16.703125 54.6875 
L 25.78125 12.796875 
L 50.875 54.6875 
L 60.296875 54.6875 
z
" id="DejaVuSans-Oblique-121"/>
    </defs>
    <g transform="translate(107.712 62.786667)scale(0.14 -0.14)">
     <use transform="translate(0 0.3125)" xlink:href="#DejaVuSans-Oblique-121"/>
    </g>
   </g>
   <g id="text_3">
    <!-- O -->
    <defs>
     <path d="M 39.40625 66.21875 
Q 28.65625 66.21875 22.328125 58.203125 
Q 16.015625 50.203125 16.015625 36.375 
Q 16.015625 22.609375 22.328125 14.59375 
Q 28.65625 6.59375 39.40625 6.59375 
Q 50.140625 6.59375 56.421875 14.59375 
Q 62.703125 22.609375 62.703125 36.375 
Q 62.703125 50.203125 56.421875 58.203125 
Q 50.140625 66.21875 39.40625 66.21875 
z
M 39.40625 74.21875 
Q 54.734375 74.21875 63.90625 63.9375 
Q 73.09375 53.65625 73.09375 36.375 
Q 73.09375 19.140625 63.90625 8.859375 
Q 54.734375 -1.421875 39.40625 -1.421875 
Q 24.03125 -1.421875 14.8125 8.828125 
Q 5.609375 19.09375 5.609375 36.375 
Q 5.609375 53.65625 14.8125 63.9375 
Q 24.03125 74.21875 39.40625 74.21875 
z
" id="DejaVuSans-79"/>
    </defs>
    <g transform="translate(107.712 163.474667)scale(0.14 -0.14)">
     <use xlink:href="#DejaVuSans-79"/>
    </g>
   </g>
   <g id="text_4">
    <!-- $x_{CM}(t)$ -->
    <defs>
     <path d="M 69.484375 67.28125 
L 67.484375 56.890625 
Q 62.796875 61.625 57.546875 63.921875 
Q 52.296875 66.21875 46.1875 66.21875 
Q 37.84375 66.21875 31.515625 62.203125 
Q 25.203125 58.203125 20.609375 50 
Q 17.671875 44.734375 16.125 38.84375 
Q 14.59375 32.953125 14.59375 27 
Q 14.59375 17.046875 19.75 11.8125 
Q 24.90625 6.59375 34.71875 6.59375 
Q 41.5 6.59375 47.75 8.765625 
Q 54 10.9375 59.90625 15.28125 
L 57.625 3.609375 
Q 51.8125 1.125 45.875 -0.140625 
Q 39.9375 -1.421875 33.984375 -1.421875 
Q 19.96875 -1.421875 12.078125 6.1875 
Q 4.203125 13.8125 4.203125 27.390625 
Q 4.203125 36.078125 7.203125 44.46875 
Q 10.203125 52.875 15.828125 59.8125 
Q 21.78125 67.1875 29.421875 70.703125 
Q 37.0625 74.21875 47.21875 74.21875 
Q 53.46875 74.21875 59.0625 72.484375 
Q 64.65625 70.75 69.484375 67.28125 
z
" id="DejaVuSans-Oblique-67"/>
     <path d="M 16.890625 72.90625 
L 31.6875 72.90625 
L 40.1875 23.78125 
L 68.40625 72.90625 
L 83.59375 72.90625 
L 69.390625 0 
L 59.8125 0 
L 72.21875 63.921875 
L 43.609375 14.015625 
L 33.984375 14.015625 
L 24.703125 64.109375 
L 12.3125 0 
L 2.6875 0 
z
" id="DejaVuSans-Oblique-77"/>
     <path d="M 31 75.875 
Q 24.46875 64.65625 21.28125 53.65625 
Q 18.109375 42.671875 18.109375 31.390625 
Q 18.109375 20.125 21.3125 9.0625 
Q 24.515625 -2 31 -13.1875 
L 23.1875 -13.1875 
Q 15.875 -1.703125 12.234375 9.375 
Q 8.59375 20.453125 8.59375 31.390625 
Q 8.59375 42.28125 12.203125 53.3125 
Q 15.828125 64.359375 23.1875 75.875 
z
" id="DejaVuSans-40"/>
     <path d="M 42.28125 54.6875 
L 40.921875 47.703125 
L 23 47.703125 
L 17.1875 18.015625 
Q 16.890625 16.359375 16.75 15.234375 
Q 16.609375 14.109375 16.609375 13.484375 
Q 16.609375 10.359375 18.484375 8.9375 
Q 20.359375 7.515625 24.515625 7.515625 
L 33.59375 7.515625 
L 32.078125 0 
L 23.484375 0 
Q 15.484375 0 11.546875 3.125 
Q 7.625 6.25 7.625 12.59375 
Q 7.625 13.71875 7.765625 15.0625 
Q 7.90625 16.40625 8.203125 18.015625 
L 14.015625 47.703125 
L 6.390625 47.703125 
L 7.8125 54.6875 
L 15.28125 54.6875 
L 18.3125 70.21875 
L 27.296875 70.21875 
L 24.3125 54.6875 
z
" id="DejaVuSans-Oblique-116"/>
     <path d="M 8.015625 75.875 
L 15.828125 75.875 
Q 23.140625 64.359375 26.78125 53.3125 
Q 30.421875 42.28125 30.421875 31.390625 
Q 30.421875 20.453125 26.78125 9.375 
Q 23.140625 -1.703125 15.828125 -13.1875 
L 8.015625 -13.1875 
Q 14.5 -2 17.703125 9.0625 
Q 20.90625 20.125 20.90625 31.390625 
Q 20.90625 42.671875 17.703125 53.65625 
Q 14.5 64.65625 8.015625 75.875 
z
" id="DejaVuSans-41"/>
    </defs>
    <g transform="translate(188.064 163.474667)scale(0.14 -0.14)">
     <use transform="translate(0 0.125)" xlink:href="#DejaVuSans-Oblique-120"/>
     <use transform="translate(59.179688 -16.28125)scale(0.7)" xlink:href="#DejaVuSans-Oblique-67"/>
     <use transform="translate(108.056641 -16.28125)scale(0.7)" xlink:href="#DejaVuSans-Oblique-77"/>
     <use transform="translate(171.186523 0.125)" xlink:href="#DejaVuSans-40"/>
     <use transform="translate(210.200195 0.125)" xlink:href="#DejaVuSans-Oblique-116"/>
     <use transform="translate(249.40918 0.125)" xlink:href="#DejaVuSans-41"/>
    </g>
   </g>
   <g id="text_5">
    <!-- $\varphi(t)$ -->
    <defs>
     <path d="M 46.390625 47.40625 
Q 43.21875 47.40625 41.796875 40.328125 
L 35.296875 6.84375 
Q 39.890625 6.84375 45.5625 11.921875 
Q 50.6875 16.453125 52.734375 27.34375 
Q 54.640625 37.5 51.5625 42.96875 
Q 49.03125 47.40625 46.390625 47.40625 
z
M 47.859375 55.078125 
Q 54.890625 55.078125 59.671875 48.640625 
Q 64.796875 41.75 62.203125 27.34375 
Q 59.8125 14.109375 51.421875 6.25 
Q 43.5 -1.171875 33.734375 -1.171875 
L 29.9375 -20.796875 
L 21 -20.796875 
L 24.8125 -1.21875 
Q 15.046875 -1.21875 10.015625 6.25 
Q 4.828125 13.875 7.421875 27.296875 
Q 10.109375 41.265625 18.21875 48.390625 
Q 24.3125 53.71875 32.5625 55.078125 
L 31 47.125 
Q 27.59375 46 24.03125 42.1875 
Q 18.65625 36.578125 16.890625 27.296875 
Q 15.046875 17.4375 18.0625 11.8125 
Q 20.84375 6.78125 26.375 6.78125 
L 32.859375 40.328125 
Q 35.75 55.078125 47.859375 55.078125 
z
" id="DejaVuSans-Oblique-966"/>
    </defs>
    <g transform="translate(174.672 126.44)scale(0.14 -0.14)">
     <use transform="translate(0 0.125)" xlink:href="#DejaVuSans-Oblique-966"/>
     <use transform="translate(65.966797 0.125)" xlink:href="#DejaVuSans-40"/>
     <use transform="translate(104.980469 0.125)" xlink:href="#DejaVuSans-Oblique-116"/>
     <use transform="translate(144.189453 0.125)" xlink:href="#DejaVuSans-41"/>
    </g>
   </g>
  </g>
 </g>
 <defs>
  <clipPath id="p2979d29838">
   <rect height="115.733333" width="446.4" x="72" y="51.213333"/>
  </clipPath>
 </defs>
</svg>
